<?xml version="1.0" encoding="utf-8"?>
<!-- Svg Vector Icons : http://www.onlinewebfonts.com/icon -->
<!DOCTYPE svg PUBLIC "-//W3C//DTD SVG 1.1//EN" "http://www.w3.org/Graphics/SVG/1.1/DTD/svg11.dtd">
<svg version="1.1" xmlns="http://www.w3.org/2000/svg" xmlns:xlink="http://www.w3.org/1999/xlink" x="0px" y="0px" viewBox="0 0 1000 1000" enable-background="new 0 0 1000 1000" xml:space="preserve">
<metadata> Svg Vector Icons : http://www.onlinewebfonts.com/icon </metadata>
<g><path d="M31.9,426C-4,459.1,5.2,530.6,52.5,585.9c47.3,55.2,114.6,73.1,150.4,39.8c35.8-33,26.6-104.7-20.6-159.8C135,410.8,67.7,392.8,31.9,426z"/><path d="M962.6,398.6c-38.7-29.4-104.2-4.9-146.1,54.6c-42,59.7-44.7,131.9-5.9,161.3c38.7,29.3,104.1,5,146.1-54.7C998.7,500.3,1001.3,428.1,962.6,398.6z"/><path d="M385.9,439.4c63.1-15.2,95.9-109.5,73.3-210.6c-22.5-101.1-92-170.7-155.1-155.5C241,88.6,208.2,182.9,230.7,284C253.4,384.9,322.8,454.6,385.9,439.4z"/><path d="M702.7,73.3c-63-15.2-132.5,54.4-155.1,155.5c-22.6,101.1,10.2,195.4,73.3,210.6C683.9,454.6,753.4,385,776,284C798.7,182.9,765.8,88.6,702.7,73.3z"/><path d="M500,524.9c-150.4,0-263.4,239.6-263.4,318.8c0,194.9,112.9-6.2,263.4-6.2c150.5,0,263.4,201,263.4,6.2C763.4,764.5,650.5,524.9,500,524.9z"/></g>
</svg>